<svg id="svg" viewBox="0 0 820 512" xmlns="http://www.w3.org/2000/svg" xmlns:xlink="http://www.w3.org/1999/xlink" version="1.1" width="410" height="256" preserveAspectRatio="xMidYMid meet" buffered-rendering="static" style="background: rgb(255, 255, 255);"><g><path d="M 390.5 5.150028324795434 C 381.15 5.232328046455594 372.15 5.490635616857558 370.5 5.72404514791091 C 368.85 5.957454678964261 362.775 7.2633127556989034 357 8.625951985099004 C 351.225 9.988591214499102 343.125 12.458534573694159 339 14.114715005532464 C 334.875 15.770895437370768 327.675 19.19303924056214 323 21.719479012624404 C 318.325 24.24591878468667 310.225 29.49853157403151 305 33.39195187783517 C 299.775 37.28537218163883 291.5099233805523 44.302445860681956 286.6331630678941 48.985448942375456 C 281.7564027552358 53.668452024068955 274.8984623228701 61.325 271.3932954404147 66 C 267.8881285579593 70.675 262.77775287569324 78.55 260.03690503537894 83.5 C 257.2960571950646 88.45 253.73258201073756 96.1 252.11807129242993 100.5 C 250.5035605741223 104.9 248.64504352371722 112.325 247.98803340264084 117 C 247.33102328156448 121.675 246.52795053000438 126.175 246.20342728806284 127 C 245.8789040461213 127.825 240.59740325106264 134.8 234.46675885459914 142.5 C 228.33611445813563 150.2 220.83746078084422 160.55 217.80308401617376 165.5 C 214.7687072515033 170.45 210.58522712651433 177.875 208.50646151619824 182 C 206.42769590588216 186.125 202.73171380765712 194.675 200.293167964587 201 C 197.8546221215169 207.325 194.56891339616936 217.675 192.99159301937027 224 C 191.41427264257115 230.325 189.30839678634047 240.45 188.3118688944132 246.5 C 186.93536937008844 254.85683796673163 186.51180507060081 262.78632406653674 186.54912895046704 279.5 C 186.57647423669917 291.7452503338125 187.17595562586968 305.7122782649446 187.90114627670005 311 C 188.61773488337133 316.225 191.18312685566116 327.3625 193.602017326233 335.75 C 196.02090779680486 344.1375 200.06588154825005 356.7375 202.59084788500013 363.75 C 205.14802168816215 370.8519486611273 210.13159639893215 381.726302414682 213.84084788500013 388.2979373396587 C 217.50338154825005 394.7868028764709 224.05767092783913 404.9118028764709 228.40593539519807 410.7979373396587 C 232.754199862557 416.6840718028464 240.4727789933547 426.225 245.55833346363744 432 C 250.64388793392015 437.775 256.311217006081 443.91346448475684 258.15239806843937 445.6410321883486 C 259.99357913079774 447.36859989194033 270.05 454.9938375773477 280.5 462.5860048225872 C 296.00514947575 473.85085534721225 302.25909251914476 477.708593076286 314.5 483.558866564115 C 323.3018929299773 487.76553840862425 335.0782963630204 492.4158655024209 343 494.8130939627222 C 350.425 497.06001231935534 363.7 500.30455285155097 372.5 502.02318403426807 C 385.4548600459494 504.5532552209391 392.02094307187105 505.25714060501036 407 505.72159077914023 C 419.04811167329996 506.09516219898654 428.98750720362165 505.866128412219 435.5 505.0648644316513 C 441 504.3881724135698 450.675 502.7868599097417 457 501.50639220092216 C 463.325 500.2259244921026 473 497.75400232271863 478.5 496.01323182451335 C 484 494.2724613263081 495.25 489.87116587483735 503.5 486.23257526568943 C 511.75 482.5939846565416 523 476.9000746140188 528.5 473.5794418378611 C 534 470.2588090617034 543 464.2172808417219 548.5 460.15382357123553 C 554 456.0903663007492 564.3728714604999 446.8559325683859 571.5508254677775 439.63285972153926 C 580.7570506289806 430.3687665110756 587.7569574318452 422.0811986957451 595.3126094479412 411.5 C 602.0772321890796 402.02658629946717 608.7287574288691 391.1576332438484 613.3658656879572 382 C 617.4041294381537 374.025 621.8901240583127 364.125 623.334742621644 360 C 624.7793611849751 355.875 627.5674191313713 347.1 629.5304269469686 340.5 C 631.4934347625662 333.9 633.9965884375189 323.1 635.0929906690858 316.5 C 636.1893929006527 309.9 637.3532269555731 297.075 637.6792885689089 288 C 638.0349423546256 278.1013858320824 637.8037297791532 266.69899212212187 637.1013784766438 259.5 C 636.4574663125622 252.9 634.7934389709637 241.875 633.4035399397583 235 C 632.0136409085528 228.125 629.0572268767935 216.875 626.8337309802932 210 C 624.610235083793 203.125 620.2300663438637 192.1 617.1000226693393 185.5 C 613.9699789948149 178.9 606.6716510883386 166.3 600.8815162105033 157.5 C 595.0913813326679 148.7 587.6318669904712 138.125 584.3048176722882 134 C 580.9777683541054 129.875 573.8106187476749 122.25632681882375 568.377818546887 117.06961515294165 C 562.9450183460991 111.88290348705956 554.45 104.52321509488915 549.5 100.71475205922961 C 544.55 96.90628902357007 536.675 91.43097999992273 532 88.54739867334663 C 527.325 85.66381734677053 520.2375 81.66100573894094 516.25 79.65226176705868 C 512.2625 77.64351779517641 509.017083718645 75.6625 509.03796381921103 75.25 C 509.0588439197771 74.8375 506.42380895072625 70.45 503.1823305546536 65.5 C 499.940852158581 60.55 494.186268439936 53.50741052465202 490.3943667354426 49.84980116589338 C 486.5138842764991 46.106748190255516 481.09566554016783 42.06736527884004 478 40.60957008159737 C 474.975 39.1850523439932 471.2625 38.01514181934118 469.75 38.00976891570399 C 468.2375 38.00439601206679 466.325 38.675 465.5 39.5 C 464.1666666666667 40.833333333333336 463.87968626387146 40.638888888888886 462.91717637484317 37.75 C 462.32162338100693 35.9625 461.2561206365927 33.15 460.54939249836707 31.5 C 459.8426643601414 29.85 457.2587318664822 26.25 454.80732029023557 23.5 C 451.75545729127975 20.076412003414717 447.5362800653972 17.02090297193916 441.42510416671166 13.808659713143147 C 433.68795729877996 9.74175045036535 430.8362136780281 8.843331955764983 420 7.0588559467589 C 410.43342843462835 5.483460891430685 403.5105373289054 5.035508153584948 390.5 5.150028324795434 Z " class="odd" fill="#29275e"></path><path d="M 465.75 85.01531277451707 C 465.8875 85.00689074853268 465.775 85.45 465.5 86 C 465.225 86.55 464.4375 86.99310925146732 463.75 86.98468722548293 C 462.9166666666667 86.97447870913822 463 86.64624963397725 464 86 C 464.825 85.46684405196876 465.6125 85.02373480050144 465.75 85.01531277451707 Z " class="even" fill="#ffffff"></path><path d="M 460 86.94444444444444 C 460.825 86.94444444444444 461.1625 87.29444444444444 460.75 87.72222222222223 L 460 88.5 L 459.25 87.72222222222223 C 458.8375 87.29444444444444 459.175 86.94444444444444 460 86.94444444444444 Z " class="even" fill="#ffffff"></path><path d="M 467 87.12305377553035 C 467.275 87.04477310575987 468.37352583435984 87.9975620959049 469.4411685207996 89.24036264251929 C 470.5088112072393 90.48316318913368 472.63658716779236 93.525 474.1695595442508 96 C 476.2860986467464 99.41717460739834 477.11525348311096 102.30470898766943 477.6153567975603 108 C 477.97757291042217 112.125 478.86260820517674 117.075 479.58210189701487 119 C 480.301595588853 120.925 480.6899609905039 122.8375 480.44513612290575 123.25 C 480.20031125530755 123.6625 480.6610097597781 125.2375 481.46891057728465 126.75 C 482.2768113947912 128.2625 482.72198903107494 129.725 482.45819421347073 130 C 482.19439939586647 130.275 482.6556173023797 131.85 483.4831228946112 133.5 C 484.3106284868427 135.15 484.99045085055894 137.2875 484.99383925842517 138.25 C 484.99722766629134 139.2125 486.6072835116217 143.7125 488.571741136937 148.25 C 490.5361987622524 152.7875 493.037059562187 160.775 494.129209581236 166 C 495.22135960028504 171.225 496.29271252332313 175.725 496.5099938546539 176 C 496.72727518598464 176.275 497.82973892374747 180.55 498.9599132719045 185.5 C 500.1379142813968 190.65947385153027 501.43541056201997 201.54096460552785 502.00050356452937 211 C 502.63143761491455 221.56114212646378 502.6540342156887 237.93799262621516 502.06328397125276 256.5 C 501.2761987697508 281.2310626642679 500.76199559587207 287.376860380365 498.57016826827305 298.25 C 497.15657572072286 305.2625 494.6511613760256 314.4875 493.00258083561243 318.75 C 491.3540002951993 323.0125 488.71524258942856 328.75 487.1386748227886 331.5 C 485.5621070561486 334.25 481.848445680123 339.1529195549667 478.88609398717614 342.3953767888148 C 475.92374229422927 345.63783402266296 465.625 354.6046608379797 456 362.3216586006297 C 446.1563017320653 370.2140011990561 435.8749822632919 377.58483265072545 432.5 379.1691595114145 C 429.2 380.7182872496961 421.8875 382.88896043437944 416.25 383.9928776995996 C 408.94436928916355 385.42344299893716 401.9066085492116 386.0032026720476 391.75 386.0111492089695 C 380.95655264506735 386.0195940089738 375.680761765754 385.55760836776244 370 384.1065650572839 C 365.875 383.0529117089236 359.7209624290823 380.68539456488736 356.3243609535162 378.8454158483144 C 352.9277594779501 377.0054371317415 343.9277594779501 371.265004808656 336.3243609535162 366.08889957479107 C 328.7209624290823 360.91279434092615 319.575 354.44753109881333 316 351.7216479256515 C 312.425 348.99576475248966 308.00529499336824 345.13075994383365 306.1784333185961 343.1327483508604 C 304.35157164382395 341.1347367578872 301.584762813441 337.7 300.0299692510784 335.5 C 298.4751756887158 333.3 296.22333738617147 329.025 295.0258841343131 326 C 293.82843088245477 322.975 291.3090637262855 312.85 289.42729045393696 303.5 C 287.5455171815884 294.15 285.5887906327322 284.925 285.07900923425655 283 C 284.5692278357809 281.075 282.9465311347053 276.125 281.47301656519977 272 C 279.4963629886811 266.46649787393983 278.57119452976644 261.35360340169626 277.94452892541494 252.5 C 277.47737529303885 245.9 276.61300629171114 238.025 276.02370892246444 235 C 275.4344115532177 231.975 274.2753023265263 221.4 273.44791064092783 211.5 C 272.6205189553294 201.6 271.67953218609125 192.6 271.3568289315098 191.5 C 271.0341256769284 190.4 270.7900474542484 185.9 270.81443288110984 181.5 C 270.8452562383677 175.9383679356873 271.82361762590733 169.6900501004886 274.02432216228226 161 C 275.7653758400656 154.125 277.6367956756936 145.8 278.1830329081222 142.5 C 278.72927014055085 139.2 279.19447123748245 135.6 279.2168131235258 134.5 C 279.2391550095692 133.4 279.9190904582887 129.8 280.7277807873469 126.5 C 281.53647111640515 123.2 282.9982001149529 118.925 283.97606745078633 117 C 284.9539347866197 115.075 286.5707375398963 112.825 287.5689624580677 112 C 288.6390936887328 111.11557180227874 289.09995012391687 111.01297650189895 288.69195842737145 111.75 C 288.3022198627904 112.45404981925996 288.54595018074 112.9931773920818 289.25 112.98437905105888 C 289.9375 112.97578752914126 293.07943231937065 112.41328752914126 296.23207182082365 111.73437905105888 C 300.81214751968054 110.74807781973196 301.8672598471909 110.7512172208358 301.48207182082365 111.75 C 301.21693231937064 112.4375 301.3375 112.99425534732555 301.75 112.9872341051679 C 302.1625 112.98021286301025 306.1 111.84899476475923 310.5 110.47341610905454 C 314.9 109.09783745334985 318.725 108.17062239780806 319 108.41293820785057 C 319.275 108.65525401789309 317.7 109.39083320691209 315.5 110.04755862789281 C 313.3 110.70428404887353 311.18050001771957 111.52474375708977 310.7900000393768 111.87080242392888 C 310.3995000610341 112.21686109076799 316.0245000610341 112.84762722828329 323.2900000393768 113.27250495174061 C 331.01761352874087 113.72440651899768 340.4426700705686 113.63386594243366 346 113.05434429869003 C 351.225 112.50947821605486 356.625 112.11061191327865 358 112.16797473696512 C 359.375 112.2253375606516 365.7875 111.76100985452436 372.25 111.13613539001571 C 378.7125 110.51126092550707 385.9125 109.57157932298817 388.25 109.04795405108482 C 390.5875 108.52432877918147 394.4125 107.39932877918147 396.75 106.54795405108482 C 399.0875 105.69657932298817 401.00689074853267 105.3375 401.01531277451704 105.75 C 401.0237348005015 106.1625 401.36123480050145 106.05 401.76531277451704 105.5 C 402.1693907485327 104.95 403.3545010038106 103.825 404.39889111957905 103 L 406.29778223915815 101.5 L 405.64889111957905 103.75 L 405 106 L 412.75 101.99375065728918 C 417.0125 99.79031351879824 420.8375 97.99031351879825 421.25 97.99375065728918 C 421.6625 97.99718779578014 421.775 98.45 421.5 99 C 421.225 99.55 421.3375 100.00108828439868 421.75 100.00241840977483 C 422.1625 100.00374853515098 424.975 99.09274123837005 428 97.97795775026165 C 431.025 96.86317426215324 434.5125 95.28708597775457 435.75 94.47553934048682 C 436.9875 93.66399270321907 441.9375 92.29404918457568 446.75 91.43122041016818 C 451.5625 90.56839163576069 457.975 89.27810264561568 461 88.56391154317924 C 464.025 87.84972044074283 466.725 87.20133444530083 467 87.12305377553035 Z " class="even" fill="#ffffff"></path><path d="M 449.5 88.19494871889628 C 451.15 88.17456902876648 452.05 88.3756408852955 451.5 88.64177506673853 C 450.95 88.90790924818157 449.6 88.92458354010594 448.5 88.6788290487927 C 447.23197979046165 88.3955366291836 447.5979696856925 88.21844131794056 449.5 88.19494871889628 Z " class="even" fill="#ffffff"></path><path d="M 444.5 89.05116959064327 C 445.6 88.99247076023391 446.275 89.21676587301587 446 89.54960317460316 C 445.725 89.88244047619047 444.825 89.93046679197994 444 89.656328320802 C 442.95523061648163 89.30916288864292 443.1069741553088 89.12550503410999 444.5 89.05116959064327 Z " class="even" fill="#ffffff"></path><path d="M 435.5 92 C 435.775 92 436 92.225 436 92.5 C 436 92.775 435.4375 93.3329634122156 434.75 93.73991869381244 C 433.92088849166674 94.2306987772291 433.75253309500005 94.0623433805624 434.25 93.23991869381244 C 434.6625 92.5579634122156 435.225 92 435.5 92 Z " class="even" fill="#ffffff"></path><path d="M 417 94.98727802080057 C 417.275 94.94529722318339 416.825 95.62602211382313 416 96.5 C 415.175 97.37397788617687 414.05 98.07665675051086 413.5 98.06150858740887 C 412.95 98.04636042430687 413.4 97.36563553366713 414.5 96.54878660820944 C 415.6 95.73193768275176 416.725 95.02925881841777 417 94.98727802080057 Z " class="even" fill="#ffffff"></path><path d="M 410.5 99 C 410.775 99 411 99.225 411 99.5 C 411 99.775 410.4375 100.3329634122156 409.75 100.73991869381244 C 408.92088849166674 101.2306987772291 408.75253309500005 101.0623433805624 409.25 100.23991869381244 C 409.6625 99.5579634122156 410.225 99 410.5 99 Z " class="even" fill="#ffffff"></path><path d="M 420 99.94444444444444 C 419.175 99.94444444444444 418.8375 100.29444444444444 419.25 100.72222222222223 L 420 101.5 L 420.75 100.72222222222223 C 421.1625 100.29444444444444 420.825 99.94444444444444 420 99.94444444444444 Z " class="odd" fill="#29275e"></path><path d="M 401 106.06723878759986 C 400.725 106.06923641172229 399.375 106.71397895730234 398 107.5 C 396.625 108.28602104269766 395.95 108.95271756197197 396.5 108.98154782060959 C 397.05 109.0103780792472 398.4 108.36563553366713 399.5 107.54878660820944 C 400.6 106.73193768275176 401.275 106.06524116347744 401 106.06723878759986 Z " class="odd" fill="#29275e"></path><path d="M 292 109 C 292.55 109 293 109.225 293 109.5 C 293 109.775 292.325 110.225 291.5 110.5 C 290.675 110.775 290.225 110.55 290.5 110 C 290.775 109.45 291.45 109 292 109 Z " class="even" fill="#ffffff"></path><path d="M 394 108.94444444444444 C 393.175 108.94444444444444 392.8375 109.29444444444444 393.25 109.72222222222223 L 394 110.5 L 394.75 109.72222222222223 C 395.1625 109.29444444444444 394.825 108.94444444444444 394 108.94444444444444 Z " class="odd" fill="#29275e"></path><path d="M 389.5 110.16996528796099 C 388.4 110.15379816845386 386.6 110.52731378887141 385.5 111 C 384.2746897448127 111.52653387452861 384.08101730860955 111.84804356415621 385 111.83003471203901 C 385.825 111.81386759253186 387.625 111.44035197211431 389 111 C 391.00973143672667 110.35637148975802 391.10778514938136 110.19359551946268 389.5 110.16996528796099 Z " class="odd" fill="#29275e"></path><path d="M 381.75 111.07028526261038 C 381.6125 111.10894215704609 380.6 111.52731378887141 379.5 112 C 377.78978454478624 112.73490478521684 377.753561476688 112.86961326619462 379.25 112.92971473738962 C 380.2125 112.96837163182533 381.225 112.55 381.5 112 C 381.775 111.45 381.8875 111.03162836817467 381.75 111.07028526261038 Z " class="odd" fill="#29275e"></path><path d="M 519 110.97768986530238 C 519.275 110.94741068469231 523.1809236558443 113.52754352747696 527.6798303463206 116.71131840482386 C 532.178737036797 119.89509328217073 539.7442198551712 125.875 544.4920143871524 130 C 549.2398089191336 134.125 555.9578678459094 140.65 559.4210342244322 144.5 C 562.884200602955 148.35 568.6171541806882 155.325 572.1609310638394 160 C 575.7047079469907 164.675 581.2546840231511 173 584.4942112330848 178.5 C 587.7337384430186 184 592.097802046911 192.2125 594.1921303528459 196.75 C 596.2864586587807 201.2875 599.7570280291671 210.2875 601.9045067314826 216.75 C 604.0519854337979 223.2125 606.7288850961593 233 607.8531726478411 238.5 C 608.9774601995231 244 610.3711665379059 252.325 610.9502978442475 257 C 611.5294291505892 261.675 612.0032638557777 272.025 612.0032638557777 280 C 612.0032638557776 287.975 611.5311736418678 298.325 610.9541744915334 303 C 610.3771753411991 307.675 609.0021346317027 316 607.8985284704302 321.5 C 606.7949223091578 327 604.0956100353603 336.9 601.9000567508804 343.5 C 599.7045034664005 350.1 595.6486841102156 360.225 592.8871248482475 366 C 590.1255655862793 371.775 585.8152520435466 379.875 583.3086503088414 384 C 580.8020485741362 388.125 575.5534980621073 395.775 571.645204726555 401 C 567.7369113910026 406.225 559.5803930538927 415.4770170381365 553.5196084218662 421.5600378625255 C 547.4588237898398 427.6430586869146 539.6875 434.7305586869146 536.25 437.3100378625255 C 532.8125 439.8895170381365 529.6625 441.9890874065811 529.25 441.97574979240255 C 528.8375 441.96241217822393 524.225 436.3589806358026 519 429.523679698133 L 509.5 417.0958598114609 L 508.87513794036107 411.2979299057305 C 508.44882864542836 407.3423186279236 506.660255295908 402.1635771891484 503.2463488945356 395 C 500.494189052133 389.225 497.12016552971926 381.8 495.7485188447273 378.5 C 494.37687215973534 375.2 492.6858938602331 370.7 491.9907892902778 368.5 C 491.2956847203225 366.3 489.6633961695738 362.3625 488.36348139972506 359.75 C 487.0635666298763 357.1375 484.2 352.975 482 350.5 L 478 346 L 482.50671339597557 340.75 C 484.9854057637622 337.8625 488.8058696558841 331.9 490.9966331562466 327.5 C 493.1873966566091 323.1 496.06837258377703 315.675 497.3988018832864 311 C 498.7292311827958 306.325 500.5295263746064 297.775 501.3994578650878 292 C 502.26938935556916 286.225 502.9853924002122 279.3625 502.9905757420724 276.75 L 503 272 L 506.75 271.024791821592 C 508.8125 270.48842732346753 511.51250000000005 269.36342732346753 512.75 268.524791821592 C 513.9875 267.68615631971636 515.7466130631785 265.5375 516.6591401403966 263.75 C 517.8847083798547 261.34930057669123 518.5039170761241 256.3188279301355 519.0286525581512 244.5 C 519.5311830289824 233.1813044517935 520.4007450537212 225.86676624586616 522.0006857892927 219.5 C 523.2445993138737 214.55 525.8333597072337 206.45 527.7534866634262 201.5 C 530.6978825842328 193.90948117467516 531.3258404680954 190.8556052962123 531.7632038957734 182 C 532.1828082448485 173.50397527357848 531.9686093795007 170.87972193913046 530.6408906038853 168.25 C 529.7384007717484 166.4625 527.9875 164.50003819066688 526.75 163.8889737570375 C 525.5125 163.2779093234081 523.0375 163.0529093234081 521.25 163.3889737570375 L 518 164 L 520.1182588204024 158.25 L 522.2365176408049 152.5 L 521.6391577080515 138.5 C 521.3106097450371 130.8 520.469893275856 121.46986715721535 519.7708988876491 117.76637146047854 C 519.0719044994421 114.06287576374173 518.725 111.00796904591246 519 110.97768986530238 Z " class="even" fill="#ffffff"></path><path d="M 374.5 112.05116959064327 C 373.1069741553088 112.12550503410999 372.95523061648163 112.30916288864292 374 112.656328320802 C 374.825 112.93046679197994 375.725 112.88244047619047 376 112.54960317460316 C 376.275 112.21676587301587 375.6 111.99247076023391 374.5 112.05116959064327 Z " class="odd" fill="#29275e"></path><path d="M 299 112.94444444444444 C 298.175 112.94444444444444 297.8375 113.29444444444444 298.25 113.72222222222223 L 299 114.5 L 299.75 113.72222222222223 C 300.1625 113.29444444444444 299.825 112.94444444444444 299 112.94444444444444 Z " class="odd" fill="#29275e"></path><path d="M 325 113.94444444444444 C 324.175 113.94444444444444 323.8375 114.29444444444444 324.25 114.72222222222223 L 325 115.5 L 325.75 114.72222222222223 C 326.1625 114.29444444444444 325.825 113.94444444444444 325 113.94444444444444 Z " class="odd" fill="#29275e"></path><path d="M 459 160.49539905534732 C 456.525 160.26048327085363 453.375 160.42109024830276 452 160.85230344967874 C 450.625 161.2835166510547 445.675 163.93961498125918 441 166.75474418346647 C 436.325 169.56987338567376 429.35 174.71419970893317 425.5 178.18658045737624 C 421.65 181.6589612058193 416.925 185.28287833183305 415 186.23972962629568 C 413.075 187.19658092075832 410.5063656600847 189.67158092075832 409.2919236890771 191.73972962629568 C 408.0774817180695 193.80787833183305 406.8084254791216 197.75 406.4717987136372 200.5 C 405.9494140339912 204.76750934958966 406.0531458894968 205.24933506968 407.17987502456015 203.7889547451589 C 407.9059437610521 202.8478798549963 408.8375 202.0603798549963 409.25 202.0389547451589 C 409.6625 202.0175296353215 411.6875 200.71005495389178 413.75 199.13345545309284 C 415.8125 197.5568559522939 423.125 193.54612428227844 430 190.22071840861406 C 436.875 186.89531253494968 445.9875 182.5602575810579 450.25 180.58726295552123 C 454.5125 178.61426832998455 459.575 177 461.5 177 C 463.425 177 466.2375 177.54273384158873 467.75 178.20607520353047 C 469.2625 178.86941656547225 472.1875 180.66941656547226 474.25 182.20607520353047 C 476.3125 183.74273384158872 478.1125 184.99124320192757 478.25 184.98054044872794 C 478.3875 184.96983769552833 478.0982639304369 182.60733769552832 477.6072531787486 179.73054044872794 C 477.0276128754364 176.33446893100773 475.5302632548214 172.92174814047326 473.3379261685541 170 C 471.4808070646354 167.525 468.50754313419856 164.47006669929146 466.7306729898055 163.2112593317588 C 464.94563642310953 161.94666653719665 461.48637499848456 160.73139450315114 459 160.49539905534732 Z " class="odd" fill="#29275e"></path><path d="M 251.03489185841502 163 C 251.50491750676574 163.825 252.1746118888627 168.325 252.52310159640825 173 C 252.8715913039538 177.675 253.42507473344972 182.4 253.75306477306583 183.5 C 254.2533152375594 185.1777201880489 254.0392634927679 185.36326740595783 252.42470514982028 184.6514665891458 C 251.36611731741914 184.18477321317596 248.925 183.54599007337956 247 183.23194850070928 C 244.04676853671063 182.7501628107401 243.0547599253428 183.11704971830264 240.64990867858785 185.5804819115635 L 237.7998173571757 188.5 L 238.2028794666833 194 C 238.48126314846644 197.79869556996516 239.87905487257675 202.1292886645993 242.7216794808872 208 C 244.98533532847011 212.675 248.6074594163047 220.775 250.77084412051954 226 C 252.9342288247344 231.225 255.53694845152108 238.2 256.5546655133789 241.5 C 257.9373319307558 245.9833670853614 258.41705924372826 250.78603798171696 258.45253008565106 260.5 L 258.5 273.5 L 261.25 278.25 C 262.7625 280.8625 265.35 283.675 267 284.5 C 268.65 285.325 271.6875 285.98405406292176 273.75 285.9645645842706 C 275.8125 285.9450751056194 278.625 285.28602104269766 280 284.5 C 281.375 283.71397895730234 282.8375 283.0549248943806 283.25 283.0354354157294 C 283.6625 283.01594593707824 284.4507637640577 285.8125 285.00169725346143 289.25 C 285.55263074286523 292.6875 286.11513074286523 302.64939798319824 286.25169725346143 311.3875510737739 L 286.5 327.27510214754784 L 264.5 327.1296039480937 C 252.4 327.0495799383939 236.74675018332672 326.65018195519565 229.7150004073927 326.24205287431977 L 216.9300008147854 325.5 L 216.04673485427082 322 C 215.56093857598782 320.075 214.5641883926611 315.125 213.83173444687813 311 C 212.97330084244143 306.16551362896115 212.5 295.14805729592183 212.5 280 C 212.5 264.90519930988074 212.97468983462983 253.81748958195294 213.82717984458588 249 C 214.55712875910814 244.875 216.4215729507327 236.55 217.97038915930716 230.5 C 219.5192053678816 224.45 222.45955267636793 215 224.5044942892768 209.5 C 226.5494359021857 204 230.525148590501 195 233.33941137442196 189.5 C 236.15367415834294 184 241.09416336815644 175.45 244.3182762851187 170.5 C 248.7639163491765 163.67458200632134 250.38678650129515 161.8624303343869 251.03489185841502 163 Z " class="even" fill="#ffffff"></path><path d="M 523 165.0829930557243 C 524.375 165.0541909270447 525.9951331999499 165.36123480050145 526.6002959998887 165.76531277451704 C 527.2054587998273 166.16939074853266 528.158727427 167.4 528.7186707269391 168.5 C 529.2786140268781 169.6 530.0485182225707 172.3 530.4295689395893 174.5 C 530.810619656608 176.7 530.5911573615658 181.875 529.9418749506069 186 C 529.292592539648 190.125 527.2061128178957 197.775 525.305253346713 203 C 523.4043938755302 208.225 520.9387713773788 216.325 519.8260922397096 221 C 518.5617111495673 226.31238647001032 517.5303340300211 235.3127070252753 517.0758512102802 245 C 516.5724755919952 255.72944207977034 515.8766740774596 261.42333379101217 514.815125388345 263.5 C 513.8647448457904 265.35919230897326 511.70697114345535 267.1654711530989 509.1407938091295 268.25 C 506.86335721410825 269.2125 504.775 270 504.5 270 C 504.225 270 504.0535789315182 256.6125 504.11906429226264 240.25 L 504.23812858452527 210.5 L 509.23150016470476 192.5 C 511.97785453380345 182.6 514.6318040191968 172.925 515.129165687801 171 C 515.6361923624398 169.0375923391547 517.0145622384797 166.98059264512935 518.2667298153589 166.31768028120723 C 519.4950284169115 165.66740443587122 521.625 165.11179518440392 523 165.0829930557243 Z " class="even" fill="#ffffff"></path><path d="M 309.5 173.002005597479 C 308.95 172.6456998927452 306.925 172.64116906085607 305 172.9919370821698 C 303.075 173.34270510348355 300.6 174.10285954798553 299.5 174.68116918106307 C 298.4 175.25947881414064 295.94896309097504 178.15529696193317 294.0532513132779 181.11632062060204 C 292.15753953558067 184.0773442792709 290.5543606351608 187.175 290.49063153456694 188 C 290.4269024339731 188.825 290.08949609422547 191.075 289.74083966846104 193 C 289.39218324269655 194.925 288.85786214311645 198.8625 288.5534594471719 201.75 L 288 207 L 290.5 204 C 291.875 202.35 292.99013296846823 200.6625 292.9780732632627 200.25 C 292.96601355805717 199.8375 294.65351355805717 197.52558123152292 296.7280732632627 195.1124027367176 C 298.80263296846823 192.69922424191228 301.7375 190.11172424191227 303.25 189.3624027367176 C 304.7625 188.61308123152293 307.125 188 308.5 188 C 309.875 188 312.9125 188.87112696489604 315.25 189.93583769976894 C 317.5875 191.00054843464184 324.225 193.95938068846144 330 196.51102048603468 C 335.775 199.06266028360793 342.68038942936585 202.1290333187119 345.34530984303524 203.32518278626574 C 348.01023025670463 204.5213322538196 350.93523025670464 206.30216763099574 351.84530984303524 207.28259473554613 C 352.75538942936583 208.26302184009648 354.2875 209.05052184009648 355.25 209.03259473554613 C 356.2125 209.01466763099575 357.16943382241845 209.3375 357.37651960537437 209.75 C 357.5836053883302 210.1625 358.94394467984563 210.725 360.39949580874185 211 L 363.045952406735 211.5 L 362.4421470707901 209 C 362.1100541360204 207.625 360.86221484450505 204.32033427394884 359.6691708674226 201.65629838655298 C 358.47612689034014 198.99226249915708 356.375 196.09567582712248 355 195.21943911536493 C 353.625 194.3432024036074 352.275 193.62736123982936 352 193.628680973636 C 351.725 193.6300007074426 347 191.07686326247455 341.5 187.95504220704032 C 336 184.8332211516061 328.8 180.91732009021194 325.5 179.2530398483867 C 322.2 177.58875960656144 317.475 175.6471964076607 315 174.93845496194064 C 312.525 174.22971351622056 310.05 173.35831130221283 309.5 173.002005597479 Z " class="odd" fill="#29275e"></path><path d="M 246.25 184.96740526445387 C 247.7625 184.98533236900425 250.12731409413414 185.5625 251.50514243140918 186.25 C 253.32951072669832 187.1603116615324 254.26193570494928 188.72287801848333 254.9363206345576 192 C 255.4456403090142 194.475 257.6259393042542 201.675 259.7814295128687 208 C 261.93691972148326 214.325 264.2650024100331 221.975 264.95494659853506 225 C 265.644890787037 228.025 267.2253728883315 234.1 268.46712904585615 238.5 C 269.70888520338076 242.9 271.8413113785108 248.75 273.20585387947835 251.5 C 274.57039638044597 254.25 276.4864455341054 259.875 277.46374088761047 264 C 278.44103624111557 268.125 280.0864971860189 273.6375 281.12032076517346 276.25 L 283 281 L 281.33249640200415 282.25 C 280.4153694231065 282.9375 277.37786942310646 283.6660209305293 274.58249640200415 283.8689354011763 C 270.3434186304536 284.17664754390364 269.0021627776533 283.83076967920687 266.5 281.7846525321712 C 264.85 280.4353824835714 262.6824632623142 277.34436155304206 261.68325169403147 274.91571713099484 C 260.2381023056916 271.4031937451332 259.9057775596528 268.1477822829445 260.05851493954844 259 C 260.22477683705404 249.04220419802024 259.90439173079045 246.42716229702938 257.66944822143125 239.5 C 256.24985517314974 235.1 253.08762476503446 227 250.64226953673062 221.5 C 248.1969143084268 216 244.80238607202875 208.575 243.09887345584607 205 C 240.89241805302584 200.3695217809667 240.0086213750025 197.06190632233333 240.0260671020302 193.5 C 240.0424849286969 190.14796081526018 240.6190112004187 187.91247074526618 241.7752782070005 186.71740526445387 C 242.72387519315023 185.73697815990352 244.7375 184.94947815990352 246.25 184.96740526445387 Z " class="even" fill="#ffffff"></path><path d="M 447.5 200.04946975846053 C 445.85 200.07054349777084 442.925 200.64361506324622 441 201.32296212618357 C 439.075 202.00230918912092 435.475 203.71944582009573 433 205.13882130612757 C 430.525 206.5581967921594 427.09915673751016 209.47011560620282 425.38701497224486 211.60975200400182 C 423.67487320697956 213.74938840180081 421.5373732069795 216.9625 420.63701497224486 218.75 C 419.7366567375102 220.5375 419 222.9 419 224 C 419 225.6500983772214 419.6560655427098 225.99443597428635 422.75 225.96819662812953 L 426.5 225.93639325625907 L 424.75 224.46819662812953 C 423.4566070066398 223.38307935287364 423.1896881860808 222.28247470385176 423.72700225974245 220.25 C 424.12685350260085 218.7375 426.48935350260086 215.28759219611607 428.97700225974245 212.58353821359123 C 431.4646510168841 209.87948423106639 435.75 206.6213802431332 438.5 205.34330712929523 C 441.25 204.06523401545724 445.3 203.02502471956208 447.5 203.0317309161949 C 449.7 203.03843711282772 453.3 203.85708999773283 455.5 204.8509595493174 C 457.7 205.84482910090196 460.7375 208.08494620068103 462.25 209.82899754882646 C 463.934221677517 211.7710597552723 465 214.16266726089054 465 216 C 465 217.65 464.55 219.225 464 219.5 C 463.45 219.775 463 220.45 463 221 C 463 221.55 464.35984505532093 220.9875 466.0218779007132 219.75 C 467.68391074610554 218.5125 469.04652918111606 216.6 469.04991886740333 215.5 C 469.05330855369056 214.4 468.01032964515366 211.925 466.7321879595435 210 C 465.4540462739334 208.075 462.85392783892286 205.4686331572376 460.95414699285345 204.20807368275024 C 459.05436614678405 202.94751420826287 455.925 201.4875238287441 454 200.96365061715295 C 452.075 200.43977740556178 449.15 200.0283960191502 447.5 200.04946975846053 Z " class="odd" fill="#29275e"></path><path d="M 445.5 207 C 442.94444444444446 207 441.1904761904762 207.8095238095238 439 210 C 436.8095238095238 212.1904761904762 436 213.94444444444446 436 216.5 C 436 219.05555555555554 436.8095238095238 220.8095238095238 439 223 C 440.73333333333335 224.73333333333335 443.05555555555554 226 444.5 226 C 445.875 226 448.2375 225.38620693330734 449.75 224.63601540734965 C 451.2625 223.88582388139196 453.106684201222 221.97332388139196 453.8481871138266 220.38601540734965 C 454.5896900264312 218.79870693330733 454.9271900264312 216.2625 454.5981871138266 214.75 C 454.26918420122195 213.2375 452.875 210.875 451.5 209.5 C 449.7857142857143 207.78571428571428 447.9 207 445.5 207 Z " class="odd" fill="#29275e"></path><path d="M 443.25 208.95547464893014 C 443.9375 208.9309857058417 445.0625 209.60598570584168 445.75 210.45547464893014 L 447 212 L 445.75 213.54452535106986 C 445.0625 214.39401429415832 443.9375 215.0690142941583 443.25 215.04452535106986 C 442.5625 215.02003640798145 441.72685503811704 214.2125 441.3930111958157 213.25 L 440.7860223916313 211.5 L 441.3930111958157 210.25 C 441.72685503811704 209.5625 442.5625 208.97996359201855 443.25 208.95547464893014 Z " class="even" fill="#ffffff"></path><path d="M 329.5 209.96805517453112 C 324.93764429775644 209.97426014299248 322.19810578924705 210.63798517821846 318.0665521876948 212.738107695569 C 315.07815589092695 214.25714846300605 311.58646963911076 216.85 310.307249405881 218.5 C 309.02802917265126 220.15 307.6480806881886 223.4379868844535 307.2406972181862 225.80663752100776 C 306.66721482407723 229.14103750991947 306.838629915109 230.32278530377778 308 231.04132474649072 C 308.825 231.55175208395207 309.95 231.97188349291645 310.5 231.9749500997449 C 311.0704696581795 231.97813083819798 311.36580656798816 229.94443901582298 311.1875810182744 227.24026287426193 C 310.9150456795771 223.1051455365902 311.26611275534174 222.08510254682358 313.9375810182744 219.25 C 315.62191145822345 217.4625 318.2375 215.36879959846016 319.75 214.59733244102262 C 321.2625 213.82586528358505 324.075 212.88772361713677 326 212.51257318224867 C 327.925 212.13742274736055 331.3 212.29082686829128 333.5 212.85347122876138 C 335.7 213.41611558923148 340.4115992391358 215.81675725567976 343.9702205314129 218.18823048753532 C 347.52884182368996 220.55970371939088 351.24134182368994 223.9625 352.2202205314129 225.75 L 354 229 L 352.25 231.12494513549817 L 350.5 233.24989027099633 L 354 232.5081294400738 C 355.925 232.1001609830664 357.6137727052244 231.70643567209223 357.752828233832 231.63318430457562 C 357.8918837624396 231.55993293705902 357.36469275181116 229.925 356.5812926546578 228 C 355.7978925575043 226.075 353.63192573552794 222.7 351.7680330502658 220.5 C 349.8816250723451 218.2734246267285 345.52411486064074 215.05020208212395 341.93956862944003 213.22994747896212 C 336.7798766670485 210.60982419426557 334.3074884446167 209.9615168166906 329.5 209.96805517453112 Z " class="odd" fill="#29275e"></path><path d="M 330.75 216.03914181063521 C 330.0625 216.06066980648458 328.0375 216.7356698064846 326.25 217.53914181063521 C 323.870188304601 218.60885485813358 322.7079198552389 220.00406342838576 321.90913212065203 222.75 C 321.0672271255252 225.64415775411098 321.1242832752512 227.1625020982262 322.15913212065203 229.4028514078172 C 322.8966094542934 230.99941968211664 324.4 232.91539909481116 325.5 233.66058343602725 C 326.6 234.4057677772433 328.9625 235.01198464372558 330.75 235.00773202821006 C 333.0211534468076 235.00232875974234 334.90355066448524 234.09644933551473 337 232 C 339 230 340 228 340 226 C 340 224.35 339.55 222.1 339 221 C 338.45 219.9 336.65 218.325 335 217.5 C 333.35 216.675 331.4375 216.01761381478585 330.75 216.03914181063521 Z " class="odd" fill="#29275e"></path><path d="M 333 219.4434411812095 C 333.9000908275517 220.32021512022456 334.20004541377585 221.52357318107673 333.75 222.4522918109003 C 333.3375 223.30353131490514 332.1 224 331 224 C 329.9 224 328.70740320825513 223.2125 328.3497849072336 222.25 C 327.9283326923988 221.1156963147025 328.3681157743291 220.05710303230768 329.5997849072336 219.2411493703092 C 331.1550714940855 218.21080627564518 331.7722811542974 218.24752644082974 333 219.4434411812095 Z " class="even" fill="#ffffff"></path><path d="M 456 227.95555555555558 C 455.725 227.94944444444445 455.275 228.19964247265375 455 228.51155117379844 C 454.725 228.82345987494313 450.9 229.475417567585 446.5 229.96034604633593 L 438.5 230.84203418951944 L 446.19830532678856 230.67101709475972 C 450.8408519390679 230.56788337893323 454.4133042208554 229.99721041960026 455.19830532678856 229.23333333333335 C 455.9142373970549 228.53666666666666 456.275 227.96166666666667 456 227.95555555555558 Z " class="odd" fill="#29275e"></path><path d="M 330 239.33620622731007 C 325.875 239.33620622731007 324.075 239.51272419394203 326 239.72846837538106 L 329.5 240.12073052345207 L 333.5 239.72846837538106 C 335.7 239.51272419394203 334.125 239.33620622731007 330 239.33620622731007 Z " class="odd" fill="#29275e"></path><path d="M 431 285.007580746307 C 430.175 285.0202553878069 428.825 285.4668440519688 428 286 C 427.175 286.5331559480312 425.2625 286.9762651994985 423.75 286.98468722548296 C 422.2375 286.99310925146733 419.5375 287.7263726817399 417.75 288.6141615149776 C 415.9625 289.5019503482152 413.2529358290947 291.4144503482152 411.72874628687714 292.8641615149776 C 410.2045567446596 294.3138726817399 408.9670567446596 296.0625 408.97874628687714 296.75 C 408.99043582909474 297.4375 408.325 298 407.5 298 C 406.50796234335337 298 406.2045729778676 298.5926227339122 406.6040988486975 299.75 C 407.0674096429593 301.09215433733476 406.8343549785792 301.3252090017149 405.6040988486975 300.75 C 404.6573235921993 300.30733311388497 403.69266688611503 300.50809076417806 403.25 301.23991869381246 C 402.75253309500005 302.0623433805624 402.92088849166674 302.2306987772291 403.75 301.73991869381246 C 404.4375 301.3329634122156 405.01466763099575 301.3375 405.0325947355461 301.75 C 405.05052184009645 302.1625 404.1505218400965 303.2875 403.0325947355461 304.25 C 401.9146676309957 305.2125 400.55 305.775 400 305.5 C 399.45 305.225 398.84817960953825 305.5625 398.6626213545295 306.25 C 398.40748703105527 307.1952818328143 397.88182747179457 307.1343381993772 396.50628635440626 306 L 394.6873299997535 304.5 L 397.59366499987675 303.868314788426 L 400.5 303.23662957685195 L 397 303.12604681663606 C 395.075 303.0652262985173 392.375 302.24018926326556 391 301.2926311827434 C 389.625 300.3450731022212 388.05 299.2026604859124 387.5 298.753936479835 C 386.95 298.30521247375754 384.925 296.59196898324194 383 294.9467287231336 C 381.075 293.3014884630253 378.825 291.9038741251955 378 291.8409190835119 C 377.175 291.7779640418283 373.6878593473727 291.6755029128039 370.2507985497171 291.61322768567993 C 366.8137377520615 291.55095245855597 364.0012377520615 291.8375 364.0007985497171 292.25 C 364.0003593473727 292.6625 365.0125 293.21885539251844 366.25 293.48634531670757 C 367.4875 293.7538352408967 370.3 293.99478117797497 372.5 294.021780732437 C 374.7 294.048780286899 377.4735544851899 294.6174248943806 378.66345441153305 295.2854354157294 C 379.8533543378763 295.95344593707824 382.55335433787627 298.1145143788398 384.66345441153305 300.0878097307551 C 386.7735544851899 302.06110508267045 390.3 304.8873135481777 392.5 306.368272987438 C 394.7 307.8492324266982 397.625 309.054860504211 399 309.0474464930219 C 400.375 309.0400324818327 402.19802112017743 308.4638240163255 403.05115804483876 307.766983236339 C 403.9042949695001 307.0701424563525 406.37929496950005 304.2514813721437 408.55115804483876 301.50329193809716 C 410.72302112017746 298.75510250405057 413.625 295.5021294493353 415 294.27446292761886 C 416.375 293.04679640590234 419.975 291.0894530967987 423 289.9248111296108 C 426.025 288.7601691624229 429.4 287.1721628044436 430.5 286.39590811187907 C 431.9509216458926 285.3720128971812 432.08819123441947 284.99086264475596 431 285.007580746307 Z " class="odd" fill="#29275e"></path><path d="M 447.5 303.0959662702784 C 446.39194798059793 303.07125435289703 443.44606296653825 305.15828540779154 440.8944914319222 307.775681007668 C 438.3614617194794 310.37405645345063 434.53646171947935 313.24979470252464 432.3944914319222 314.1662104500547 C 430.252521144365 315.0826261975848 426.25 316.51142343279184 423.5 317.3413154171815 C 420.75 318.17120740157117 415.125 320.74776800628626 411 323.06700564988176 C 406.875 325.38624329347726 401.925 327.4735035292888 400 327.7053617294629 C 397.8319064517133 327.96649953097716 393.6459147463287 327.1308031680483 389 325.50930864593863 C 384.875 324.06962124982607 376.1 322.21286409523157 369.5 321.38318163572853 C 362.8096399993108 320.5421400690115 355.5088850002585 318.99043847594515 353 317.87627361198054 C 350.525 316.7771566584222 347.7125 315.2303563419981 346.75 314.43893957548266 C 345.218054581269 313.179295638059 344.6573428008631 313.2114451330108 342.25 314.6969557833436 L 339.5 316.3939115666872 L 344.5 317.6127333594253 C 347.25 318.2830853454313 351.8625 319.76945524292665 354.75 320.9157775760817 C 357.6375 322.0620999092368 364.5 323.675 370 324.5 C 375.5 325.325 382.5875 326.9967994643023 385.75 328.2151099206718 C 389.32367251079944 329.5918190392638 393.7774021669082 330.4434254480814 397.51704592930184 330.4651099206718 C 402.8615114466708 330.4961000158213 404.8176469568731 329.86291536487767 415.01704592930184 324.80050676116593 C 421.3326706681858 321.66578547980714 428.975 318.14589244735555 432 316.97852224460684 C 435.025 315.8111520418581 439.6375 313.08842399933343 442.25 310.92801548344096 C 444.8625 308.76760696754843 448.4625 306.47480076286433 450.25 305.8328905841429 C 453.151828815971 304.7908131274275 453.2857408098283 304.58408356897974 451.5 303.9031758467533 C 450.4 303.4837429199104 448.6 303.1204986104967 447.5 303.0959662702784 Z " class="odd" fill="#29275e"></path><path d="M 289.2687012437018 313 C 289.7923625689142 314.925 291.1546209446472 319.425 292.2959420786641 323 C 293.43726321268093 326.575 295.3743042655778 331.3 296.6004777517682 333.5 C 297.82665123795863 335.7 301.0056601699796 339.9304491229937 303.6649420451481 342.9009980510972 C 306.3242239203167 345.8715469792006 311.198499071123 350.3715469792006 314.49666460249557 352.9009980510972 C 317.7948301338682 355.4304491229937 325.44483013386815 360.82831695716794 331.49666460249557 364.8962599048176 C 337.54849907112305 368.96420285246734 344.075 373.6537392598242 346 375.31745192116625 C 347.925 376.9811645825083 352.65 379.8315253164639 356.5 381.6515868855121 C 360.75473451317276 383.66298396964936 367.2257174464084 385.6162482898216 373 386.6321070963306 C 380.51933128867734 387.95496908615655 385.7316173711054 388.1691393604126 398 387.6593448134719 C 406.525 387.30510101099753 414.85 386.78092460855413 416.5 386.4945083635977 C 418.15535399311165 386.20716274251845 415.01784664370547 388.2147124830138 409.5 390.9734933088049 C 404 393.7233512736253 396.575 396.76675717384353 393 397.7366175315119 C 387.8320868135371 399.1386186871546 382.5037395593887 399.5 367 399.5 C 352.84157105275585 399.5 344.8976961537856 399.026088419521 338 397.7699329976013 L 328.5 396.0398659952026 L 316.62626323579394 383.7699329976013 C 310.0957080154806 377.02146984892056 302.0379712546119 367.9 298.7201815449746 363.5 C 295.4023918353373 359.1 291.904408053494 353.7 290.94688425198956 351.5 C 289.55953980392877 348.3124470838863 289.11561395685646 343.64087635154 288.7612608144667 328.5 C 288.4553764478633 315.4301077976132 288.61375415555966 310.5923882785077 289.2687012437018 313 Z " class="even" fill="#ffffff"></path><path d="M 393.25 310.43634681795726 C 392.2875 310.12633756783373 392.7375 310.5763375678338 394.25 311.43634681795726 C 396.1880876529497 312.5383456999982 397.51667149357746 312.7137370329055 398.75 312.03040868590074 C 400.22536128391675 311.21298155101846 400.0684248747263 311.056045141828 397.75 311.03040868590074 C 396.2375 311.0136839086553 394.2125 310.7463560680808 393.25 310.43634681795726 Z " class="odd" fill="#29275e"></path><path d="M 318 326 C 316.94610708474147 324.075 316.08383106316626 322.95 316.08383106316626 323.5 C 316.08383106316626 324.05 316.94610708474147 326.075 318 328 C 319.05389291525853 329.925 319.91616893683374 331.05 319.91616893683374 330.5 C 319.91616893683374 329.95 319.05389291525853 327.925 318 326 Z " class="odd" fill="#29275e"></path><path d="M 322.19075434769195 332.73333333333335 C 321.1311359795984 331.7351534641253 321.0358034941422 331.83553531018146 321.69075434769195 333.25981622935683 C 322.1358394564614 334.22771515550306 322.725 334.78271515550307 323 334.4931495626902 C 323.275 334.20358396987723 322.9108394564614 333.41166666666663 322.19075434769195 332.73333333333335 Z " class="odd" fill="#29275e"></path><path d="M 472.78826789945407 354.9036736812276 C 472.9468152441538 356.88165315655243 472.34342689057445 360.975 471.4474048915 364 C 470.5513828924255 367.025 468.05881256904996 372.875 465.9083597284432 377 C 463.7579068878365 381.125 459.7954104261259 387.425 457.102812035753 391 C 454.41021364538005 394.575 440.7867739021613 408.975 426.8285014952668 423 C 412.8702290883723 437.025 395.8610250423171 454.8 389.0302702818108 462.5 C 382.1995155213044 470.2 376.13580503314444 476.66413137953 375.5553580858996 476.8647363989555 C 374.9749111386548 477.06534141838097 370.225 476.22576266516 365 474.99900583624225 C 359.775 473.7722490073245 354.7125 472.3706176277945 353.75 471.8842694372868 C 352.7875 471.39792124677905 351.3184123279549 468.6375 350.4853607287887 465.75 C 349.6523091296225 462.8625 348.04406964194794 455.55 346.91149520062305 449.5 C 345.77892075929816 443.45 344.84079021672335 436.7 344.82676066156796 434.5 C 344.81273110641257 432.3 343.60847059408707 424.75442905338207 342.1506261897336 417.7320645630712 C 340.69278178538013 410.70970007276037 339.1625 404.9722000727604 338.75 404.9820645630712 C 338.3375 404.991929053382 338 405.675 338 406.5 C 338 407.76344051731087 336.6989228452098 407.89984443662706 329.75 407.364923598278 C 325.2125 407.01563157733085 320.2625 406.1156315773308 318.75 405.364923598278 C 317.2375 404.6142156192251 316 403.55 316 403 C 316 402.45 316.7875 401.58397070199885 317.75 401.0754904488864 C 318.7125 400.56701019577395 319.275 399.9054505765091 319 399.6053579616313 C 318.725 399.3052653467535 316.1375 400.62129464475464 313.25 402.5298675127449 C 310.3625 404.4384403807352 306.9124861936816 407.4625 305.5833026526258 409.25 C 304.25411911156993 411.0375 301.2853638411319 417.45 298.9860687183191 423.5 C 296.6867735955062 429.55 294.1742874018246 435.7375 293.4027660656933 437.25 C 292.631244729562 438.7625 291.6625 439.98199982014216 291.25 439.9599996003159 C 290.8375 439.9379993804896 287.93883279069314 437.8004993804896 284.8085173126515 435.2099996003159 L 279.1170346253029 430.5 L 279.66168509377655 425.5 C 279.961242851437 422.75 281.07232154815546 413.75 282.1307488642619 405.5 C 283.1891761803683 397.25 284.73698393149004 385.1 285.5703216445323 378.5 C 286.40365935757467 371.9 287.5494950692615 363.35 288.11662322605866 359.5 L 289.14776532932615 352.5 L 292.7264903645987 358 C 294.6947891339986 361.025 299.4990419349002 367.3145446792842 303.40260769993563 371.9767659539649 C 307.30617346497104 376.63898722864553 314.1 384.22616220069506 318.5 388.83715478074157 L 326.5 397.22077765355334 L 336 399.13245279583697 C 341.30920024044696 400.20081765110734 352.33762066032335 401.3194040118868 361 401.66814312634745 C 371.25138783948216 402.08085420455654 379.3782711848001 401.87464582694656 385 401.05917645950205 C 389.675 400.3810364392123 397.55 398.2547719002163 402.5 396.3341441506221 C 407.45 394.41351640102783 414.425 391.0543152169365 418 388.86925263041917 C 421.575 386.6841900439018 425.175 384.49681492564565 426 384.00841903429443 C 426.825 383.52002314294316 429.975 382.0596173012872 433 380.7630727195034 C 436.025 379.46652813771954 443.6391527181622 374.37693217419246 449.92033937369376 369.45285946722095 C 456.20152602922536 364.52878676024943 463.8515260292254 358.43165315655244 466.92033937369376 355.9036736812276 L 472.5 351.30734736245523 L 472.78826789945407 354.9036736812276 Z " class="even" fill="#ffffff"></path><path d="M 285.75 362.97876338951755 C 285.8875 362.9904435252829 285.74618986470364 365.5875 285.4359774771192 368.75 C 285.1257650895348 371.9125 283.80422443994996 382.15 282.4992204780418 391.5 C 281.1942165161337 400.85 279.857016633518 411.2 279.52766518334033 414.5 C 279.19831373316265 417.8 278.6941977978046 422.525 278.40740754921126 425 L 277.885970733587 429.5 L 270.36933259665113 422 C 266.23518162133644 417.875 261.98583820627937 413.2625 260.92634722985764 411.75 L 259 409 L 270.39751533252786 389.75 C 276.6661487654182 379.1625 282.6286487654182 368.8029435252829 283.64751533252786 366.72876338951755 C 284.66638189963754 364.65458325375215 285.6125 362.96708325375215 285.75 362.97876338951755 Z " class="even" fill="#ffffff"></path><path d="M 344 365 C 342.8663792118452 363.625 341.93795762205883 362.95 341.9368409115859 363.5 C 341.9357242011129 364.05 342.8641457908993 365.4 344 366.5 C 345.1358542091007 367.6 346.0642757988871 368.275 346.0631590884141 368 C 346.06204237794117 367.725 345.1336207881548 366.375 344 365 Z " class="odd" fill="#29275e"></path><path d="M 347.3888888888889 369 C 347.14444444444445 368.725 346.936908036463 369.175 346.9276968711523 370 C 346.91848570584165 370.825 347.71848570584166 372.175 348.70547464893014 373 L 350.5 374.5 L 349.33503685637186 373 C 348.6943071273764 372.175 348.0943071273764 371.05 348.00170352303854 370.5 C 347.9090999187007 369.95 347.6333333333333 369.275 347.3888888888889 369 Z " class="odd" fill="#29275e"></path><path d="M 352 373.5 C 351.45 373.225 351 373.45 351 374 C 351 374.55 351.45 375.225 352 375.5 C 352.55 375.775 353 375.55 353 375 C 353 374.45 352.55 373.775 352 373.5 Z " class="odd" fill="#29275e"></path><path d="M 339.4715260435306 432.20659241461186 L 342.44305208706123 432.5 L 345.18932671137304 447.5 C 346.69977775474456 455.75 348.4075427241167 463.85 348.9843599766445 465.5 C 349.5611772291723 467.15 350.0256669286432 469.0625 350.0165593088021 469.75 C 350.0052270601053 470.6054288732849 347.39583056368025 470.0302924461223 341.75 467.9279697365632 C 337.2125 466.23835309167305 329.3375 462.86335309167305 324.25 460.4279697365632 C 319.1625 457.99258638145346 315.0075 455.4375 315.01666666666665 454.75 C 315.0258333333333 454.0625 319.8633333333333 448.6429665865753 325.76666666666665 442.70659241461186 C 335.16043744453447 433.26024488952777 336.870858231724 431.94980325918107 339.4715260435306 432.20659241461186 Z " class="even" fill="#ffffff"></path></g></svg>